<svg xmlns="http://www.w3.org/2000/svg" viewBox="0 0 16 16" role="img" aria-labelledby="title">
  <title id="title">LinkedIn</title>
  <path fill="currentColor" d="M0 1.146C0 .513.526 0 1.175 0h13.65C15.474 0 16 .513 16 1.146v13.708C16 15.487 15.474 16 14.825 16H1.175A1.16 1.16 0 0 1 0 14.854V1.146zM4.943 13.5V6.169H2.542V13.5h2.401zM3.744 5.168c.837 0 1.358-.554 1.358-1.248-.015-.709-.521-1.248-1.342-1.248S2.4 3.211 2.4 3.92c0 .694.506 1.248 1.327 1.248h.017zM13.5 13.5V9.49c0-2.148-1.146-3.148-2.674-3.148-1.233 0-1.787.678-2.096 1.154V6.169H6.329c.03.879 0 7.331 0 7.331H8.73v-4.095c0-.22.016-.439.08-.596.176-.439.576-.894 1.249-.894.88 0 1.232.675 1.232 1.663V13.5h2.209z"/>
</svg>
